<svg width="28" height="28" viewBox="0 0 28 28" fill="none" xmlns="http://www.w3.org/2000/svg">
<g opacity="0.8">
<path d="M25.1286 9.41127C25.115 8.47121 24.9408 7.5386 24.6074 6.65939C24.0241 5.15803 22.8361 3.97084 21.3323 3.38967C20.4628 3.06307 19.5436 2.88797 18.6131 2.86811C17.4165 2.81471 17.0371 2.7998 13.9995 2.7998C10.962 2.7998 10.5726 2.7998 9.3847 2.86811C8.45551 2.88797 7.53628 3.06307 6.6668 3.38967C5.16293 3.97084 3.97377 5.15803 3.39163 6.65939C3.06449 7.52743 2.88785 8.44513 2.87044 9.37277C2.81695 10.5687 2.80078 10.9474 2.80078 13.9799C2.80078 17.0125 2.80078 17.3999 2.87044 18.5871C2.8891 19.516 3.06449 20.4325 3.39163 21.303C3.97501 22.8031 5.16293 23.9903 6.66804 24.5714C7.53379 24.9092 8.45303 25.1005 9.38594 25.1303C10.5838 25.1837 10.9632 25.1998 14.0008 25.1998C17.0384 25.1998 17.4277 25.1998 18.6156 25.1303C19.5448 25.1116 20.464 24.9365 21.3348 24.6099C22.8386 24.0275 24.0266 22.8403 24.6099 21.3402C24.9371 20.4709 25.1125 19.5545 25.1311 18.6244C25.1846 17.4297 25.2008 17.051 25.2008 14.0172C25.1983 10.9847 25.1983 10.5997 25.1286 9.41127ZM13.9921 19.7147C10.8152 19.7147 8.24156 17.1453 8.24156 13.9737C8.24156 10.8021 10.8152 8.23278 13.9921 8.23278C17.1665 8.23278 19.7426 10.8021 19.7426 13.9737C19.7426 17.1453 17.1665 19.7147 13.9921 19.7147ZM19.9715 9.35911C19.2289 9.35911 18.6305 8.76056 18.6305 8.02043C18.6305 7.2803 19.2289 6.68174 19.9715 6.68174C20.7116 6.68174 21.3111 7.2803 21.3111 8.02043C21.3111 8.76056 20.7116 9.35911 19.9715 9.35911Z" fill="#F7F8FA"/>
<path d="M13.9937 17.4787C15.9287 17.4787 17.4972 15.9101 17.4972 13.9752C17.4972 12.0403 15.9287 10.4717 13.9937 10.4717C12.0588 10.4717 10.4902 12.0403 10.4902 13.9752C10.4902 15.9101 12.0588 17.4787 13.9937 17.4787Z" fill="#F7F8FA"/>
</g>
</svg>
