<svg width="16" height="16" viewBox="0 0 16 16" fill="none" xmlns="http://www.w3.org/2000/svg">
<g clip-path="url(#clip0_343_10554)">
<path d="M6.0026 14.6663C6.37079 14.6663 6.66927 14.3679 6.66927 13.9997C6.66927 13.6315 6.37079 13.333 6.0026 13.333C5.63441 13.333 5.33594 13.6315 5.33594 13.9997C5.33594 14.3679 5.63441 14.6663 6.0026 14.6663Z" stroke="#59B17A" stroke-width="1.5" stroke-linecap="round" stroke-linejoin="round"/>
<path d="M13.3307 14.6663C13.6989 14.6663 13.9974 14.3679 13.9974 13.9997C13.9974 13.6315 13.6989 13.333 13.3307 13.333C12.9625 13.333 12.6641 13.6315 12.6641 13.9997C12.6641 14.3679 12.9625 14.6663 13.3307 14.6663Z" stroke="#59B17A" stroke-width="1.5" stroke-linecap="round" stroke-linejoin="round"/>
<path d="M0.664062 0.666992H3.33073L5.1174 9.59366C5.17836 9.90059 5.34533 10.1763 5.58909 10.3725C5.83285 10.5688 6.13786 10.673 6.45073 10.667H12.9307C13.2436 10.673 13.5486 10.5688 13.7924 10.3725C14.0361 10.1763 14.2031 9.90059 14.2641 9.59366L15.3307 4.00033H3.9974" stroke="#59B17A" stroke-width="1.5" stroke-linecap="round" stroke-linejoin="round"/>
</g>
<defs>
<clipPath id="clip0_343_10554">
<rect width="16" height="16" fill="white"/>
</clipPath>
</defs>
</svg>
