<svg width="28" height="28" viewBox="0 0 28 28" fill="none" xmlns="http://www.w3.org/2000/svg">
<g opacity="0.8">
<path fill-rule="evenodd" clip-rule="evenodd" d="M21.2094 5.24937C20.0194 5.17937 17.5694 5.10938 13.8594 5.10938H13.3694C9.79937 5.10938 7.4194 5.17937 6.2294 5.31937C4.6194 5.45937 3.49937 5.87937 2.86937 6.43937C2.30937 6.92937 1.88938 7.83937 1.74938 9.02937C1.67938 9.79937 1.60938 11.4094 1.60938 13.8594V14.2094C1.60938 16.5194 1.67937 18.1294 1.81937 18.8994C2.02937 20.0194 2.3794 20.8594 3.0794 21.3494C3.7794 21.9094 4.96938 22.2594 6.64938 22.3994C7.83938 22.4694 10.2894 22.5394 13.9994 22.5394H14.4894C18.0594 22.5394 20.4394 22.4694 21.6294 22.3294C23.2394 22.1894 24.3594 21.7694 24.9894 21.2094C25.5494 20.7194 25.9694 19.8094 26.1094 18.6194C26.1794 17.8494 26.2494 16.2394 26.2494 13.7894V13.4394C26.2494 11.1294 26.1794 9.51937 26.0394 8.74937C25.8294 7.62937 25.4794 6.78937 24.7794 6.29937C24.0794 5.73937 22.8894 5.38937 21.2094 5.24937ZM18.4794 13.8594L10.7794 18.4794V9.23937L18.4794 13.8594Z" fill="#F7F8FA"/>
</g>
</svg>
